<svg xmlns="http://www.w3.org/2000/svg" width="236" height="32" viewBox="0 0 236 32">
    <g fill="none" fill-rule="evenodd">
        <path fill="none" d="M0 0h236v32H0z"/>
        <path fill="#000" fill-rule="nonzero" d="M114.897 10.659h-5.408V9.287h12.301v1.372h-5.408v14.674h-1.485V10.66zm11.237 2.567c2.86 0 5.409 1.86 5.409 6.198s-2.55 6.197-5.409 6.197-5.386-1.86-5.386-6.197c0-4.338 2.527-6.198 5.386-6.198zm0 11.133c2.283 0 3.946-1.527 3.946-4.935 0-3.409-1.663-4.936-3.946-4.936-2.283 0-3.923 1.527-3.923 4.936 0 3.408 1.64 4.935 3.923 4.935zm9.177-15.072v10.092l5.452-5.953h1.685l-4.411 4.78 4.81 7.127h-1.596l-4.1-6.153-1.84 1.992v4.161h-1.375V9.287h1.375zm8.29 10.137c0-3.851 2.393-6.198 5.585-6.198 3.369 0 5.497 2.833 5.32 6.552h-9.487c.044 2.877 1.862 4.581 4.3 4.581 1.862 0 3.17-.951 3.635-2.59h1.44c-.576 2.458-2.548 3.852-5.164 3.852-3.502 0-5.63-2.501-5.63-6.197zm1.462-.908h7.935c0-2.014-1.44-4.05-3.834-4.05-2.217 0-3.813 1.416-4.1 4.05zm13.21-3.076c.577-1.13 1.751-2.214 3.968-2.214 2.815 0 4.012 1.683 4.012 4.604v7.503h-1.375v-7.127c0-2.235-.576-3.74-2.992-3.74-2.061 0-3.613 1.726-3.613 4.25v6.617H156.9V13.426h1.374v2.014zm22.52 2.766c-.421.045-.887.045-1.352.045h-3.236v7.082h-1.485V9.287h4.72c3.835 0 6.561.664 6.561 4.404 0 2.7-1.418 3.896-3.657 4.338l3.901 7.304h-1.662l-3.79-7.127zm-4.588-7.57v6.265h3.435c2.638 0 4.81-.332 4.81-3.166 0-2.833-2.172-3.098-4.81-3.098h-3.435zm19.77 12.882c-.775 1.262-2.26 2.103-4.477 2.103-2.216 0-3.945-1.284-3.945-3.254 0-2.7 2.66-3.696 8.4-4.271v-.42c0-2.701-1.595-3.299-3.324-3.299-2.017 0-3.236 1.13-3.347 2.678h-1.44c.31-2.346 2.216-3.895 4.875-3.895 2.771 0 4.61 1.15 4.61 4.692 0 1.638-.022 2.723-.022 3.674 0 1.35.067 2.524.133 3.807h-1.396l-.066-1.815zm-4.166.886c2.216 0 4.21-1.13 4.21-4.515v-.576c-4.853.531-6.937 1.173-6.937 3.032 0 1.262 1.153 2.059 2.727 2.059zm8.954-13.657h1.397v2.679h2.349v1.195h-2.35v7.614c0 1.549.045 1.859 1.64 1.859h.71v1.24h-1.13c-2.128 0-2.616-.488-2.616-2.834v-7.88h-1.972v-1.194h1.972v-2.679zm7.492-1.46v2.19h-1.374v-2.19h1.374zm0 4.139v11.907h-1.374V13.426h1.374zm4.699 2.014c.576-1.13 1.75-2.214 3.967-2.214 2.815 0 4.012 1.683 4.012 4.604v7.503h-1.374v-7.127c0-2.235-.576-3.74-2.992-3.74-2.062 0-3.613 1.726-3.613 4.25v6.617h-1.374V13.426h1.374v2.014zm18.929 7.459c-.82 1.438-2.261 2.235-4.034 2.235-2.727 0-4.965-2.235-4.965-5.954 0-3.696 2.238-5.954 4.965-5.954 1.773 0 3.213.82 4.034 2.258v-2.058h1.396v11.487c0 3.187-2.217 4.581-5.054 4.581-2.46 0-4.388-1.35-4.61-3.497h1.44c.156 1.262 1.198 2.302 3.215 2.302 2.238 0 3.613-1.018 3.613-3.231v-2.17zm-3.746-8.433c-2.217 0-3.768 1.793-3.768 4.714 0 2.944 1.551 4.737 3.768 4.737 1.817 0 3.856-1.439 3.856-4.737 0-3.275-2.039-4.714-3.856-4.714z"/>
        <path fill="none" d="M2.67 4.267h103.08V25.6H2.67z"/>
        <path fill="#05F" d="M105.74 9.708l-5.372 5.364-5.372-5.364 5.372-5.363z"/>
        <path fill="#000" fill-rule="nonzero" d="M87.874 16.168c-3.264-.711-1.701-.356-3.106-.672-1.286-.296-1.939-.671-1.939-1.58 0-.968.93-1.778 2.928-1.778 1.959 0 3.047.87 3.047 1.64 0 .197.112.296.336.296h2.85c.145 0 .217-.092.217-.276 0-2.035-1.76-4.465-6.37-4.465-4.808 0-6.312 2.825-6.312 4.642 0 1.521.554 3.319 4.234 4.168l3.166.711c1.602.356 2.275.909 2.275 1.837 0 .85-.85 1.877-3.067 1.877-2.057 0-3.304-.988-3.363-2.153 0-.198-.119-.296-.356-.296h-2.909c-.057 0-.217 0-.217.296.257 2.607 2.196 5.057 6.825 5.057 5.243 0 6.312-3.2 6.312-4.88 0-2.251-1.286-3.713-4.55-4.424zM76.894 18.262c.18 0 .278-.092.296-.276v-.455c0-2.43-.692-4.524-2.057-5.985-1.365-1.462-3.205-2.213-5.46-2.213-2.177 0-3.997.81-5.402 2.39-1.405 1.58-2.097 3.497-2.097 5.67 0 2.31.732 4.247 2.176 5.767 1.444 1.521 3.344 2.292 5.639 2.292 1.662 0 3.086-.395 4.234-1.205 1.147-.79 2.354-2.094 2.77-3.872.013-.197-.06-.296-.218-.296h-2.85c-.16 0-.292.099-.395.296-.712 1.423-1.8 2.094-3.6 2.094-1.168 0-2.217-.415-3.087-1.225-.831-.77-1.306-1.698-1.425-3.022l11.476.04zm-11.278-2.766c.495-1.837 2.038-3.2 4.056-3.2 2.671 0 3.779 1.897 4.096 3.2h-8.152zM61.451 9.333h-3.046c-.142.012-.254.107-.337.285l-4.283 11.715L49.56 9.618c-.069-.19-.181-.285-.337-.285h-3.106c-.188 0-.254.095-.198.285l6.074 15.41c.054.204.173.305.356.305h2.81c.145 0 .264-.101.356-.304l6.133-15.411c.056-.184-.01-.279-.198-.285zM40.41 9.65v1.817c0 .079-.052.07-.06.059-.395-.514-.93-.968-1.562-1.343a9.596 9.596 0 0 0-.455-.237c-.851-.415-1.82-.613-2.87-.613-1.958 0-3.68.79-5.104 2.331-1.424 1.54-2.136 3.477-2.136 5.748 0 2.272.712 4.208 2.136 5.748 1.425 1.541 3.146 2.331 5.105 2.331 1.049 0 1.998-.197 2.849-.612.158-.079.336-.158.495-.257.613-.375 1.127-.79 1.523-1.284.02-.02.086-.054.099 0v1.6c-.013.198.086.297.297.297h2.592c.197 0 .296-.1.296-.297V9.63c0-.198-.099-.297-.296-.297h-2.612c-.198 0-.297.106-.297.316zm-1.306 11.476c-.87.928-1.418 1.265-2.918 1.383-1.5.118-2.938-.455-3.828-1.403-.89-.928-1.326-2.173-1.326-3.733 0-1.54.455-2.785 1.326-3.733.89-.929 2.315-1.403 3.561-1.403s2.295.454 3.185 1.383c.574.612.95 1.343 1.168 2.232.217.889.198 2.074 0 3.002-.198.929-.594 1.68-1.168 2.272zM26.937 9.333H23.91c-.167 0-.273.095-.317.285L20.5 21.6 16.985 9.618c-.05-.19-.156-.285-.317-.285h-3.165c-.146 0-.252.095-.317.285L9.506 21.6 6.538 9.618c-.04-.19-.145-.285-.316-.285H3.135c-.161 0-.227.095-.197.285l4.847 15.41c.047.204.16.305.336.305h3.047c.16 0 .272-.101.336-.304L15.04 13.8l3.489 11.228c.048.203.16.304.336.304h3.087c.146 0 .258-.101.336-.304l4.847-15.411c.043-.19-.023-.285-.197-.285z"/>
    </g>
</svg>
