<svg xmlns="http://www.w3.org/2000/svg" xmlns:xlink="http://www.w3.org/1999/xlink" width="48" height="48" viewBox="0 0 48 48">
    <defs>
        <path id="a" d="M0 0h48v48H0z"/>
        <path id="b" d="M43 19.726c0 .351-.198.734-.594 1.15l-8.29 8.476 1.965 11.972c.015.112.022.271.022.479 0 .335-.08.618-.24.85-.16.231-.391.347-.696.347-.29 0-.594-.096-.913-.287L24 37.062l-10.254 5.65c-.335.192-.639.288-.913.288-.32 0-.56-.116-.72-.347-.16-.232-.24-.515-.24-.85 0-.096.016-.256.046-.48l1.964-11.971-8.312-8.477c-.38-.43-.571-.814-.571-1.15 0-.59.426-.957 1.279-1.1l11.464-1.748L22.88 5.982C23.171 5.327 23.543 5 24 5c.457 0 .83.327 1.119.982l5.138 10.895 11.464 1.747c.853.144 1.279.511 1.279 1.102z"/>
    </defs>
    <g fill="none" fill-rule="evenodd">
        <use fill="#5A81EA" xlink:href="#b"/>
    </g>
</svg>
