<svg xmlns="http://www.w3.org/2000/svg" width="48" height="48" viewBox="0 0 48 48">
    <defs>
        <path id="a" d="M0 0h48v48H0z"/>
        <path id="b" d="M43 19.726c0 .351-.198.734-.594 1.15l-8.29 8.476 1.965 11.972c.015.112.022.271.022.479 0 .335-.08.618-.24.85-.16.231-.391.347-.696.347-.29 0-.594-.096-.913-.287L24 37.062l-10.254 5.65c-.335.192-.639.288-.913.288-.32 0-.56-.116-.72-.347-.16-.232-.24-.515-.24-.85 0-.096.016-.256.046-.48l1.964-11.971-8.312-8.477c-.38-.43-.571-.814-.571-1.15 0-.59.426-.957 1.279-1.1l11.464-1.748L22.88 5.982C23.171 5.327 23.543 5 24 5c.457 0 .83.327 1.119.982l5.138 10.895 11.464 1.747c.853.144 1.279.511 1.279 1.102z"/>
    </defs>
    <g fill="none" fill-rule="evenodd">
        <path stroke="#5A81EA" stroke-width="2" d="M12.895 41.993c.085-.016.206-.063.369-.156L24 35.92l.483.266 10.285 5.669c.126.076.23.118.315.136a.718.718 0 0 0 .02-.188c0-.167-.005-.285-.01-.317l-2.045-12.472.354-.362 8.28-8.467c.235-.246.318-.406.318-.46 0-.023-.024-.043-.43-.112l-11.99-1.828-.227-.482-5.149-10.917C24.06 6.056 23.994 6 24 6c.006 0-.059.057-.215.408L18.42 17.785l-.526.08-11.449 1.746c-.421.07-.445.09-.445.115 0 .049.086.222.285.45l8.667 8.837-.082.5-1.96 11.946a3.773 3.773 0 0 0-.036.344c0 .08.008.142.021.19z"/>
    </g>
</svg>
