<svg xmlns="http://www.w3.org/2000/svg" xmlns:xlink="http://www.w3.org/1999/xlink" width="18" height="18" viewBox="0 0 18 18">
    <defs>
        <path id="a" d="M0 0h18v18H0z"/>
        <path id="b" d="M16 7.425c0 .13-.073.27-.219.424l-3.054 3.123.724 4.41c.005.042.008.1.008.177 0 .123-.03.228-.088.313a.292.292 0 0 1-.257.128.658.658 0 0 1-.336-.106L9 13.812l-3.778 2.082a.69.69 0 0 1-.336.106c-.118 0-.206-.043-.265-.128a.538.538 0 0 1-.089-.313 1.5 1.5 0 0 1 .017-.177l.724-4.41L2.21 7.849c-.14-.159-.21-.3-.21-.424 0-.217.157-.353.471-.405l4.224-.644 1.893-4.014C8.694 2.12 8.832 2 9 2c.168 0 .306.12.412.362l1.893 4.014 4.224.644c.314.052.471.188.471.405z"/>
    </defs>
    <g fill="none" fill-rule="evenodd">
        <use fill="#C5D0DE" xlink:href="#b"/>
    </g>
</svg>
